<svg xmlns="http://www.w3.org/2000/svg" viewBox="0 0 16 16" shape-rendering="crispEdges" role="img" aria-label="DevBot — code agent (error)"><g fill="currentColor"><rect x="5" y="1" width="6" height="1"/><rect x="4" y="2" width="8" height="1"/><rect x="3" y="3" width="10" height="1"/><rect x="4" y="4" width="1" height="3"/><rect x="11" y="4" width="1" height="3"/><rect x="5" y="7" width="6" height="1"/><rect x="3" y="8" width="10" height="1"/><rect x="3" y="9" width="1" height="3"/><rect x="12" y="9" width="1" height="3"/><rect x="3" y="12" width="10" height="1"/><rect x="5" y="13" width="2" height="2"/><rect x="9" y="13" width="2" height="2"/></g><g fill="var(--accent,#5fbf8d)"><rect x="6" y="5" width="1" height="1"/><rect x="9" y="5" width="1" height="1"/><rect x="7" y="9" width="2" height="1"/><rect x="7" y="10" width="1" height="1"/><rect x="8" y="11" width="1" height="1"/></g><g fill="var(--accent-err,#cf6679)"><rect x="15" y="0" width="1" height="2"/><rect x="15" y="3" width="1" height="1"/></g></svg>
